<?xml version="1.0" encoding="utf-8"?>
<!-- Generator: Adobe Illustrator 21.1.0, SVG Export Plug-In . SVG Version: 6.00 Build 0)  -->
<svg version="1.1" id="Layer_2" xmlns="http://www.w3.org/2000/svg" xmlns:xlink="http://www.w3.org/1999/xlink" x="0px" y="0px"
	 viewBox="0 0 577.5 151.2" style="enable-background:new 0 0 577.5 151.2;" xml:space="preserve">
<style type="text/css">
	.st0{fill:#943651;}
</style>
<g>
	<path class="st0" d="M129,94.1c0-2.8-0.7-4.1-2.8-4.1h-3.8c-0.5,0-0.7-0.2-0.7-0.7v-1.9c0-0.5,0.2-0.6,0.8-0.6
		c0.8,0,4.7,0.2,12.6,0.2c6.9,0,10.8-0.2,11.8-0.2c0.5,0,0.7,0.2,0.7,0.6v2c0,0.5-0.2,0.7-0.7,0.7h-3.4c-2.4,0-3.9,1.5-4,3.2
		c-0.1,1-0.2,5.9-0.2,10.6V114c0,4.1,0.1,9.9,0.2,12.5c0.2,3.8,0.9,7.5,2.9,10.1c2.8,3.8,7.2,5.1,11.1,5.1c3.8,0,8.3-1.5,10.9-3.9
		c3.1-3.1,4.7-7.8,4.7-13.8v-14.7c0-6.5-0.7-13.7-0.9-15.6c-0.2-2.1-1.6-3.6-3.4-3.6H162c-0.5,0-0.7-0.2-0.7-0.6v-2
		c0-0.5,0.2-0.6,0.7-0.6c0.8,0,4.6,0.2,10,0.2c5.1,0,7.7-0.2,8.3-0.2c0.7,0,0.8,0.2,0.8,0.6v1.9c0,0.5-0.1,0.7-0.5,0.7h-2.9
		c-2.9,0-3.3,2.3-3.4,3.2c-0.2,1-0.2,12.4-0.2,13.5c0,1.1-0.2,15.4-0.5,18.6c-0.5,6.7-2.5,11.8-6.9,15.7c-3.4,3.1-8.7,5.1-14.9,5.1
		c-3.9,0-8.7-0.7-11.8-2c-4.7-2-8-5.7-9.6-10.9c-1.1-3.6-1.5-9-1.5-19.7V94.1z"/>
	<path class="st0" d="M183.5,126.6c0.3,0,0.5,0.2,0.5,0.7c0.2,2.6,0.8,5.7,3.1,9.3c2.5,3.9,6.7,5.9,10.8,5.9
		c4.4,0,10.6-2.8,10.6-9.6c0-7.5-3.4-10-12.1-13.2c-2.6-1-8-3.3-11.9-6.9c-2.8-2.6-4.1-6.7-4.1-11.7c0-4.6,1.8-8.3,5.7-11.4
		c3.3-2.8,6.9-3.9,11.6-3.9c5.4,0,8.7,1.3,10.3,2c0.8,0.3,1.3,0.2,1.7-0.2l1.1-1.1c0.3-0.3,0.6-0.5,1.1-0.5c0.5,0,0.7,0.5,0.7,1.3
		c0,1.3,1.3,12.7,1.3,13.6c0,0.3-0.2,0.5-0.5,0.6l-1.3,0.4c-0.3,0.1-0.7,0-0.8-0.5c-0.8-2.3-2.1-5.6-5.1-8.7
		c-2.1-2.3-4.7-3.4-8.5-3.4c-6.5,0-9.1,5.2-9.1,8.3c0,2.8,0.3,5.2,2.3,7.3c2.1,2.1,6.7,4.1,10,5.1c4.7,1.5,8.7,3.1,11.8,6.4
		c2.6,2.8,4.1,6.2,4.1,11.7c0,10-6.5,18.1-17.3,18.1c-6.7,0-10.6-1.5-13.9-3.9c-1-0.6-1.5-1-2-1c-0.5,0-0.8,0.7-1.3,1.5
		c-0.5,0.8-0.8,1-1.5,1c-0.7,0-1-0.5-1-1.3c0.2-1,1.3-14.2,1.5-15.2c0.1-0.5,0.2-0.7,0.5-0.7L183.5,126.6z"/>
	<path class="st0" d="M272.5,131.5c0.2,0.2,0.3,0.5,0.2,0.8c-4.9,7-12.7,13.7-24.3,13.7c-10.5,0-16.3-3.1-21.4-7.7
		c-6.1-5.4-8.8-14.9-8.8-22.1c0-8,2.6-15.7,8.3-21.9c4.4-4.7,11.4-8.7,21.2-8.7c7.5,0,13.6,2.3,16.5,3.9c1.1,0.7,1.5,0.7,1.6,0
		l0.7-2.1c0.2-0.5,0.3-0.5,1.3-0.5c1,0,1.1,0.2,1.1,1.3c0,1.5,1.6,14.5,2,17c0.1,0.5,0,0.7-0.3,0.8l-1.6,0.5
		c-0.4,0.2-0.7-0.2-0.9-0.8c-1-2.9-2.9-7-6.4-10.6c-3.6-3.4-7.8-6-14.2-6c-13.1,0-18.5,11.8-18.5,23.5c0,5.1,1.5,14.7,7.5,21.2
		c5.4,5.7,10.1,6.4,14.1,6.4c9,0,16.1-4.5,19.5-9.5c0.4-0.6,0.7-0.8,1-0.6L272.5,131.5z"/>
</g>
<g>
	<path d="M18.5,63.5C12.6,59.9,6.3,50.9,6.3,38.8c0-5.1,1.3-13,7.7-20.7C21.3,9.1,29.6,7.5,36.6,7.5c5.2,0,12.1,1.1,18.7,6.6
		c6.1,5.2,11.4,13.4,11.4,24.9c0,6.1-1.9,12.4-6.2,18.2c-5.1,6.7-12.5,11.7-24,11.7C32.3,68.9,25.1,67.6,18.5,63.5z M58.5,39.6
		c0-18.2-13-29-22.2-29c-1.3,0-6.9-1-13.2,4.9c-5.6,5.3-8.3,13.7-8.3,20.6C14.8,58,30,65.8,37.1,65.8C55.4,65.8,58.5,47,58.5,39.6z"
		/>
	<path d="M80.8,19.5c0-4.9-2.5-7.7-5.5-7.7l-3.4-0.1c-0.4,0-0.5-0.3-0.5-0.6V9c0-0.3,0.1-0.5,0.5-0.5c0.4,0,1.1,0.1,2.3,0.1
		c1.2,0.1,3.1,0.2,5.9,0.2c2.8,0,4.6-0.2,5.6-0.2c1.1,0,1.7,0.3,2.4,1.1l17.5,22.7c0.9,1.2,15,18.4,17,21.1h0.3v-9.9
		c0-7.4-0.1-11.5-0.3-15.7c-0.1-3.2-0.5-11.4-1-12.8c-0.7-2.1-2.2-3.2-4.6-3.2h-2.7c-0.3,0-0.5-0.2-0.5-0.6V9c0-0.3,0.2-0.5,0.5-0.5
		c1.2,0,3.8,0.2,9.2,0.2c5,0,7-0.2,8.1-0.2c0.6,0,0.7,0.2,0.7,0.6v2.1c0,0.3-0.2,0.6-0.5,0.6h-2.2c-2.2,0-3.1,1.4-3.2,4.6
		c-0.3,5.6-0.3,13.8-0.3,19.2v31.2c0,1.2-0.1,2-0.4,2c-1,0-1.7-1-2-1.3l-10.2-12.8c-5.8-7.2-11.9-14.9-12.4-15.4
		c-0.9-0.8-16.2-20.1-16.7-20.7h-0.5v18.5c0,7.7,0.7,21.3,0.8,23c0.3,3.2,0.8,4.8,3.1,4.8h2.5c0.6,0,0.7,0.2,0.7,0.7v1.8
		c0,0.5-0.1,0.7-0.7,0.7c-0.8,0-5.8-0.2-8.1-0.2c-1.7,0-7.5,0.2-8.3,0.2c-0.3,0-0.4-0.2-0.4-0.6v-2.2c0-0.3,0.1-0.5,0.5-0.5h2.8
		c2.4,0,3.3-1,3.7-5.1c0.2-1.6,0.3-11.1,0.3-25.9V19.5z"/>
	<path d="M154.5,35.8c0.7,0,9.6-0.3,10.6-0.5c2.4-0.4,3.1-1.1,3.8-3.7c0.3-0.8,0.6-2.5,0.7-4.1c0-0.4,0.3-0.6,0.6-0.6l2.1,0.1
		c0.4,0,0.6,0.3,0.5,0.7c-0.2,1.4-0.2,8.2-0.2,9.5c0,2.9,0.3,6.9,0.5,8.7c0,0.4-0.2,0.6-0.5,0.7l-1.8,0.2c-0.4,0.1-0.6-0.2-0.7-0.7
		c-0.2-1.1-0.7-3-0.9-3.9c-0.5-1.7-1.4-3-3.6-3.2c-3.9-0.4-9.7-0.4-11-0.4v5.2c0,4.5,0.2,12.6,0.2,14.2c0.1,4.3,2.2,6,4.7,6.5
		c1.7,0.3,4.1,0.6,6.2,0.6c1.4,0,5.6-0.1,7.3-0.2c1.4-0.2,5.1-1.1,7.2-2.9c1-0.8,5.7-6.8,6.8-8.7c0.2-0.4,0.5-0.7,1-0.5l1.3,0.7
		c0.4,0.2,0.4,0.5,0.2,1.2l-4.4,12.2c-0.3,0.7-0.8,1.2-1.8,1.2c-0.4,0-2.2-0.1-7.2-0.2c-5,0-13.1-0.1-26.1-0.1
		c-3.1,0-5.4,0.1-7.1,0.1c-1.7,0.1-2.8,0.2-3.6,0.2c-0.5,0-0.7-0.2-0.7-0.6v-2.2c0-0.3,0.3-0.4,0.8-0.4h3.3c3.8,0,4.2-0.6,4.2-3.7
		V33.1c0-6.9-0.2-17.3-0.2-18.2c-0.3-2.7-1.2-3.2-4.2-3.2h-3c-0.4,0-0.7-0.1-0.7-0.6V8.9c0-0.2,0.2-0.4,0.6-0.4
		c1.8,0,4.7,0.2,10.2,0.2h3.7c8.2,0,16.5-0.1,24.7-0.1c1.3,0,2.9-0.2,3.3-0.2c0.4,0,0.6,0.2,0.7,0.4l4.2,13.4
		c0.1,0.3,0.1,0.6-0.3,0.7l-1.2,0.7c-0.3,0.2-0.6-0.1-0.7-0.3c-0.2-0.3-6.3-8.2-8.3-9.5c-1.7-1.2-4.1-2.2-6.3-2.2l-14.8-0.3V35.8z"
		/>
	<path d="M222.8,44.5c-0.8,2.1-5.4,14.7-5.8,16.5c-0.1,0.6-0.3,1.4-0.3,1.8c0,1.2,1,1.8,2.8,1.8h3.9c0.6,0,0.8,0.2,0.8,0.6v1.9
		c0,0.6-0.2,0.7-0.7,0.7c-1.2,0-4.6-0.2-9.5-0.2c-6.1,0-7.9,0.2-9.1,0.2c-0.4,0-0.6-0.2-0.6-0.7v-2c0-0.4,0.3-0.6,0.7-0.6h2.9
		c2.5,0,3.7-1.2,4.8-3.8c0.6-1.3,6.7-16.7,9.1-23.6c0.6-1.7,7.3-19.6,8.1-21.8c0.2-0.8,0.7-1.9,0.1-2.8c-0.3-0.3-0.6-0.7-0.6-1.1
		c0-0.2,0.2-0.6,0.7-0.7c2.3-0.5,6-3,6.9-4.2c0.4-0.4,0.7-0.7,1.1-0.7c0.5,0,0.7,0.5,0.9,1.4c1.6,5.2,8.1,23.9,9.7,29.2
		c1.9,6.5,7.3,22,8.5,24.4c1.4,2.7,3.6,3.7,5.7,3.7h2.7c0.5,0,0.7,0.2,0.7,0.6v2.1c0,0.4-0.3,0.6-0.8,0.6c-1.5,0-3.2-0.2-10-0.2
		c-6.9,0-9.8,0.2-11.7,0.2c-0.4,0-0.7-0.2-0.7-0.7v-1.9c0-0.5,0.3-0.6,0.8-0.6h2.1c2.3,0,3.1-0.8,2.5-3.2c-0.7-3-4.1-13.7-5.2-17
		H222.8z M242.2,41.5c-0.7-2.5-7.5-23.3-7.9-24.6c-0.3-0.6-0.4-1.2-0.7-1.2c-0.3,0-0.7,0.6-0.9,1.2c-0.4,1.1-8.3,22.4-8.9,24.5
		H242.2z"/>
	<path d="M273.4,45.5c0-4.2-0.7-5.1-3-6.3l-1.6-0.8c-0.5-0.2-0.7-0.2-0.7-0.6v-0.5c0-0.3,0.2-0.5,0.7-0.7l8.2-4.2
		c0.5-0.2,0.8-0.3,1.2-0.3c0.5,0,0.6,0.5,0.6,1l0.4,5.9h0.3c2.5-3.8,6.4-7.2,10-7.2c2.8,0,4.2,1.7,4.2,3.7c0,2.4-2,4.1-3.5,4.1
		c-0.9,0-1.7-0.3-2.4-0.7c-0.7-0.4-1.7-0.7-2.7-0.7c-1.3,0-3.5,0.8-4.9,3.5c-0.5,0.9-0.8,2.4-0.8,2.7v17.3c0,2.6,0.6,3.4,2.3,3.4
		h3.9c0.5,0,0.6,0.3,0.6,0.7v1.5c0,0.5-0.1,0.7-0.4,0.7c-0.5,0-4.3-0.2-8.8-0.2c-5.2,0-8.7,0.2-9.2,0.2c-0.3,0-0.5-0.2-0.5-0.8v-1.4
		c0-0.6,0.2-0.7,0.9-0.7h3.2c1.2,0,1.8-0.5,1.8-1.6c0.1-2.7,0.1-5.7,0.1-10V45.5z"/>
	<path d="M301,47.5c0,4.5,2,9.6,4.2,12.7c2.7,3.6,6.2,4.2,9.1,4.2c4.2,0,6.3-0.9,9.2-3.6c0.2-0.2,0.4-0.2,0.7,0l0.8,0.8
		c0.3,0.3,0.4,0.6,0,1.1c-2.4,2.7-7.7,5.9-13.4,5.9c-4.4,0-9.1-1-12.9-5.8c-3.1-4.1-3.7-7.6-3.7-11.3c0-9.7,6.8-19.6,17.8-19.6
		c8.7,0,11.3,5,11.3,6.7c-0.1,1.9-1.3,2.9-3.1,2.9c-1.9,0-3.3-1.1-4.6-3.3c-1.8-3.4-3.6-3.7-5.6-3.7C306.1,34.6,301,38.9,301,47.5z"
		/>
	<path d="M333.5,22.3c0-5.1-1-6-4-7l-1.4-0.5c-0.5-0.2-0.6-0.2-0.6-0.5v-0.7c0-0.3,0.3-0.4,1-0.8l8.7-4.6c0.7-0.3,1.2-0.7,1.9-0.7
		c0.5,0,0.8,0.7,0.7,2.1c-0.2,1.4-0.2,18.3-0.2,22.5v5.3h0.4c2.9-3.5,7.7-5.4,11.4-5.4c3.5,0,5.9,1.1,8.2,3.3
		c3.7,3.5,3.6,7.7,3.6,12.2v4.7c0,4.7,0.2,9.8,0.2,11.4c0,1,1.3,1.2,3.1,1.2h1.4c0.7,0,0.9,0.2,0.9,0.7v1.2c0,0.7-0.2,1-0.7,1
		c-0.6,0-3.2-0.2-8-0.2c-4.1,0-7.1,0.2-7.8,0.2c-0.6,0-0.7-0.2-0.7-0.9v-1.4c0-0.4,0.1-0.7,0.6-0.7h1.9c1.4,0,3.1-0.2,3.2-1.6
		c0.1-1.2,0-5.6,0-8.2v-6.7c0-4.7-0.3-8-2.7-10.2c-1.7-1.6-3.4-2.3-5.5-2.3c-2.4,0-5.4,0.8-7.7,3.5c-0.7,0.9-1.7,2.6-1.7,4.1v18.2
		c0,2.7,0.2,3.4,1.8,3.4h2.5c0.6,0,0.9,0.2,0.9,0.7V67c0,0.6-0.2,0.9-0.7,0.9c-0.7,0-4.1-0.2-7.9-0.2c-4.2,0-7.3,0.2-8.1,0.2
		c-0.3,0-0.6-0.2-0.6-0.8v-1.5c0-0.6,0.3-0.7,1.3-0.7h1.7c1.3,0,2.6-0.3,2.7-1.3c0.3-1.6,0.3-10.7,0.3-16.2V22.3z"/>
	<path d="M377.7,43.4c0-2.8-0.5-4.3-4.7-5c-0.6-0.1-0.7-0.3-0.7-0.6v-0.7c0-0.2,0.2-0.4,0.6-0.6c2.7-1,5.8-2.3,9-4.1
		c0.7-0.3,1.1-0.5,1.6-0.5c0.4,0,0.5,0.4,0.4,1c-0.2,1.4-0.2,6.7-0.2,13.6v9.1c0,3.2,0,6.2,0.1,7.2c0.2,1.6,0.4,2.2,1.3,2.2h3.8
		c0.7,0,0.8,0.3,0.8,0.7v1.4c0,0.6-0.2,0.8-0.7,0.8c-0.7,0-4.5-0.2-8-0.2c-4.8,0-8.1,0.2-9,0.2c-0.4,0-0.7-0.2-0.7-0.7v-1.7
		c0-0.5,0.3-0.7,0.8-0.7h4.1c0.9,0,1.3-0.3,1.3-1.7c0.1-2.5,0.1-5.1,0.1-7.6V43.4z M373.8,17.9c0-2.2,1.8-4.7,5.2-4.7
		c3.1,0,4.5,2.5,4.5,4.4c0,2.2-1.5,4.9-5,4.9C376.6,22.5,373.8,20.6,373.8,17.9z"/>
	<path d="M409.6,60h0.3c1.3-3.2,7.2-17.6,8-20.8c0.6-2.2,0-3.6-1.5-3.6h-1.7c-0.3,0-0.3-0.4-0.3-0.8v-1.5c0-0.5,0.2-0.7,0.5-0.7
		c1.2,0,3,0.2,6.7,0.2c3.2,0,5.2-0.2,6-0.2c0.7,0,0.7,0.1,0.7,0.7v1.4c0,0.6,0,0.8-0.4,0.8h-1.6c-1,0-1.8,0.2-2.6,0.9
		c-1.2,1.2-5.4,10.3-6.7,13.4c-1,2.5-7.2,16.5-7.5,17.1c-0.7,1.2-1.1,1.9-2,1.9c-0.8,0-1.3-0.7-1.7-1.7l-6.5-16.9
		c-0.3-0.7-3.7-10.2-4.2-11.6c-1.1-2.4-1.9-3.1-3.4-3.1h-1.7c-0.4,0-0.5-0.3-0.5-0.8v-1.5c0-0.6,0.2-0.7,0.9-0.7
		c0.9,0,2.3,0.2,7,0.2c4.4,0,6.6-0.2,7.5-0.2c0.7,0,0.8,0.2,0.8,0.7v1.5c0,0.5-0.1,0.8-0.6,0.8h-1.7c-0.8,0-1.5,0.5-1.5,1.6
		c0,1.5,2.2,8.5,2.7,9.9C405.1,48.7,408.7,58.3,409.6,60z"/>
	<path d="M434.4,45.5c-0.2,0.7-0.3,2.1-0.3,4c0,8.2,5.2,14.3,11.8,14.3c5.1,0,8.7-2.9,10.1-5.7c0.2-0.3,0.5-0.5,0.7-0.4l1.1,0.6
		c0.3,0.1,0.4,0.3,0,1.2c-1.5,3.3-5.8,9.1-13.2,9.1c-4.7,0-10-1.4-13.1-5.9c-2.9-4.2-3.7-7.3-3.7-13.2c0-3.2,0.8-8.8,5.2-13.2
		c3.6-3.7,7.7-4.4,11.9-4.4c9.6,0,12.2,9,12.2,12.2c0,1.2-1,1.3-2.3,1.3H434.4z M447.7,43c1.6,0,2.2-0.4,2.2-1.2
		c0-1.9-1-7.4-6.4-7.4c-3.7,0-7.2,2.4-8.7,8.6H447.7z"/>
	<path d="M464.7,66.3c-0.4-0.3-0.4-0.7-0.5-1.2l-1.4-7.9c-0.1-0.4,0.2-0.6,0.5-0.7l1.1-0.2c0.3-0.1,0.6,0.1,0.7,0.5l2.1,4.1
		c1.7,3.1,2.8,5.2,7.2,5.2c2.9,0,6.6-1.7,6.6-5.7c0-3.7-1.8-5.9-8.1-7.7c-4.9-1.4-9.8-4-9.8-10.6c0-5.7,5.4-10.2,11.7-10.2
		c4,0,6.2,1,7.7,1.7c1.3,0.6,1.4,1,1.5,1.5l1.3,5.8c0,0.3-0.2,0.6-0.6,0.7l-1,0.3c-0.3,0.1-0.5,0-0.7-0.4l-2.8-3.8
		c-1-1.6-2.6-3.2-5.8-3.2c-3.2,0-6.4,1.9-6.4,5.5c0,4.8,3.9,5.7,8,6.9c6.1,1.7,9.9,4.2,10,10.7c-0.1,6.7-5.6,11-12.7,11
		C469,68.7,465.7,67,464.7,66.3z"/>
	<path d="M531.7,64c1.3,0,2.5-0.7,2.9-1.2c0.3-0.4,0.5-0.6,0.8-0.3l0.8,0.7c0.3,0.2,0.4,0.7-0.1,1.5c-0.7,1.2-2.2,4.1-6.5,4.1
		c-3,0-5.2-2.2-5.9-5.6h-0.2c-1.7,2.1-4.5,3.8-8.2,5.1c-1.6,0.5-3.1,0.5-4.9,0.5c-2,0-5-1.7-5-6.9c0-3.8,1.7-7.2,8.3-10.1
		c3.7-1.7,8.1-3.7,9.4-4.8v-5.3c-0.2-1.4-0.2-3.6-1.2-4.7c-0.9-1.1-2.6-1.8-5-1.8c-1.7,0-4.2,0.7-5.4,1.7c-1.2,1.1-0.4,2.3-0.4,3.8
		c0,2.9-1,4.7-4.4,4.7c-1.3,0-2-0.7-2-2.7c0-2.7,2.3-5.8,5.7-7.8c3.5-2.1,6.4-2.9,10.2-2.9c3.9,0,5.5,1.2,6.7,2.2
		c1.7,1.7,1.8,3.7,1.8,5.9v17.7C529.2,62.5,530.2,64,531.7,64z M523.1,49.4c-3,2.2-11.2,3.9-11.2,10.8c0,3.1,1.8,4.6,4.3,4.6
		c2.4,0,6.8-2.9,6.8-5.2V49.4z"/>
	<path d="M549.8,57.3c0,6.2,2.8,7.3,4.3,7.3c1.9,0,4.3-0.3,5.5-1.1c0.4-0.2,0.7-0.2,1,0.2l0.4,0.8c0.3,0.3,0.1,0.7-0.2,0.9
		c-0.8,0.8-4.2,3.3-9.2,3.3c-4.1,0-8.1-3.9-8.1-7.1c0-3.4,0.3-10.7,0.3-11.9v-1.8c0-1.5,0.1-7.2,0.2-10.7h-5.1c-0.7,0-1.3-0.3-1.3-1
		c0-0.7,0.5-0.9,1.5-1.5c2-1.2,8.4-7.6,9.5-10.4c0.2-0.7,0.7-0.8,1.2-0.8c0.7,0,0.8,0.6,0.8,1.2l-0.4,8.2h11.6
		c0.5,0,0.7,0.4,0.6,0.7l-0.8,2.9c-0.1,0.4-0.3,0.7-0.7,0.7H550c-0.2,3.8-0.3,7.9-0.3,11.7V57.3z"/>
</g>
<g>
	<path d="M22.8,133.9c0,6.2,2.8,7.3,4.3,7.3c1.9,0,4.3-0.3,5.5-1.1c0.4-0.2,0.7-0.2,1,0.2l0.4,0.8c0.3,0.3,0.1,0.7-0.2,0.9
		c-0.8,0.8-4.2,3.3-9.2,3.3c-4.1,0-8.1-3.9-8.1-7.1c0-3.4,0.3-10.7,0.3-11.9v-1.8c0-1.5,0.1-7.2,0.2-10.7h-5.1c-0.7,0-1.3-0.3-1.3-1
		c0-0.7,0.5-0.9,1.5-1.5c2-1.2,8.4-7.6,9.5-10.4c0.2-0.7,0.7-0.8,1.2-0.8c0.7,0,0.8,0.6,0.8,1.2l-0.4,8.2h11.6
		c0.5,0,0.7,0.4,0.6,0.7l-0.8,2.9c-0.1,0.4-0.3,0.7-0.7,0.7H23c-0.2,3.8-0.3,7.9-0.3,11.7V133.9z"/>
	<path d="M42.4,98.9c0-5.1-1-6-4-7l-1.4-0.5c-0.5-0.2-0.6-0.2-0.6-0.5v-0.7c0-0.3,0.3-0.4,1-0.8l8.7-4.6c0.7-0.3,1.3-0.7,1.9-0.7
		c0.5,0,0.8,0.7,0.7,2.1c-0.2,1.4-0.3,18.3-0.3,22.5v5.3h0.4c2.9-3.5,7.7-5.4,11.4-5.4c3.5,0,5.9,1.1,8.2,3.3
		c3.7,3.5,3.6,7.7,3.6,12.2v4.7c0,4.7,0.2,9.8,0.2,11.4c0,1,1.3,1.2,3.1,1.2h1.4c0.7,0,0.9,0.2,0.9,0.7v1.2c0,0.7-0.2,1-0.7,1
		c-0.6,0-3.2-0.2-8-0.2c-4.1,0-7.1,0.2-7.8,0.2c-0.6,0-0.7-0.2-0.7-0.9v-1.4c0-0.4,0.1-0.7,0.6-0.7h1.9c1.4,0,3.1-0.2,3.2-1.6
		c0.1-1.2,0-5.6,0-8.2V125c0-4.7-0.3-8-2.7-10.2c-1.7-1.6-3.4-2.3-5.5-2.3c-2.4,0-5.4,0.8-7.7,3.5c-0.7,0.9-1.7,2.6-1.7,4.1v18.2
		c0,2.7,0.3,3.4,1.8,3.4h2.5c0.6,0,0.9,0.2,0.9,0.7v1.4c0,0.6-0.2,0.9-0.7,0.9c-0.7,0-4.1-0.2-7.9-0.2c-4.2,0-7.3,0.2-8.1,0.2
		c-0.3,0-0.6-0.2-0.6-0.8v-1.5c0-0.6,0.3-0.7,1.2-0.7h1.7c1.3,0,2.6-0.3,2.7-1.3c0.3-1.6,0.3-10.7,0.3-16.2V98.9z"/>
	<path d="M87.6,122.2c-0.2,0.7-0.3,2.1-0.3,4c0,8.2,5.2,14.3,11.8,14.3c5.1,0,8.7-2.9,10.1-5.7c0.2-0.3,0.5-0.5,0.7-0.4l1.1,0.6
		c0.2,0.1,0.4,0.3,0,1.2c-1.5,3.3-5.8,9.1-13.2,9.1c-4.7,0-10-1.4-13.1-5.9c-2.9-4.2-3.7-7.3-3.7-13.2c0-3.2,0.8-8.8,5.2-13.2
		c3.6-3.7,7.7-4.4,11.9-4.4c9.6,0,12.2,9,12.2,12.2c0,1.2-1,1.3-2.3,1.3H87.6z M100.8,119.7c1.6,0,2.2-0.4,2.2-1.2
		c0-1.9-1-7.4-6.4-7.4c-3.7,0-7.2,2.4-8.7,8.6H100.8z"/>
	<path d="M293.1,107c0-5.3-0.2-14.2-0.3-15.7c-0.2-2.2-0.6-3-3.1-3h-3.9c-0.5,0-0.6-0.4-0.6-0.8v-1.8c0-0.4,0.1-0.6,0.6-0.6
		c0.9,0,3.9,0.2,10.8,0.2c8.1,0,11.6-0.2,12.3-0.2c0.7,0,0.7,0.2,0.7,0.7v1.9c0,0.4-0.2,0.7-0.8,0.7h-5c-2.6,0-2.9,0.8-2.9,3.2
		c0,1.1-0.3,13.7-0.3,19.5v7.2c0,1.4,0,19.4,0.3,22.8c1.8,0.2,18.3,0.3,20.9,0c4.9-0.8,9.9-10.7,11.1-14c0.2-0.3,0.3-0.5,0.7-0.3
		l1.3,0.5c0.3,0.2,0.3,0.2,0.2,0.7c-0.3,0.6-3.6,14.3-4.1,16.6c-1.1-0.1-7.6-0.2-15-0.2c-7.4-0.1-15.6-0.1-20.1-0.1
		c-3.2,0-5.7,0.1-7.4,0.1c-1.7,0.1-2.7,0.2-3.2,0.2c-0.6,0-0.7-0.2-0.7-0.6v-2.1c0-0.4,0.1-0.6,0.6-0.6h4c3.1,0,3.6-1.2,3.6-2.2
		c0-1.6,0.3-22.3,0.3-27.4V107z"/>
	<path d="M344,120.1c0-2.8-0.5-4.3-4.7-5c-0.6-0.1-0.7-0.3-0.7-0.6v-0.7c0-0.2,0.2-0.4,0.6-0.6c2.7-1,5.8-2.3,9-4.1
		c0.7-0.3,1.1-0.5,1.6-0.5c0.4,0,0.5,0.4,0.4,1c-0.2,1.4-0.2,6.7-0.2,13.6v9.1c0,3.2,0,6.2,0.1,7.2c0.2,1.6,0.4,2.2,1.3,2.2h3.8
		c0.7,0,0.8,0.3,0.8,0.7v1.4c0,0.6-0.2,0.8-0.7,0.8c-0.7,0-4.5-0.2-8-0.2c-4.8,0-8.1,0.2-9,0.2c-0.4,0-0.7-0.2-0.7-0.7v-1.7
		c0-0.5,0.3-0.7,0.8-0.7h4.1c0.9,0,1.3-0.3,1.3-1.7c0.1-2.5,0.1-5.1,0.1-7.6V120.1z M340.1,94.5c0-2.2,1.8-4.7,5.2-4.7
		c3.1,0,4.5,2.5,4.5,4.4c0,2.2-1.5,4.9-5,4.9C342.9,99.2,340.1,97.3,340.1,94.5z"/>
	<path d="M362.6,99.4c0-5.6-0.9-6.7-3.9-7.7l-0.8-0.2c-0.9-0.2-1.1-0.4-1.1-0.7v-0.7c0-0.2,0.2-0.4,0.7-0.7c2.4-1.1,6.7-3.2,8.8-4.6
		c0.6-0.4,1.2-0.7,1.7-0.7c0.6,0,0.7,0.4,0.7,1.4c-0.1,0.7-0.1,10.2-0.1,17.6v9.7c2.7-2.6,7.4-4.2,11.5-4.2
		c7.3,0,15.2,5.9,15.2,17.8c0,9.7-7.8,18.9-17.3,18.9c-4.7,0-7.9-1-9.8-2.2l-3.3,1.8c-0.3,0.3-0.6,0.3-1.1,0.3l-1-0.3
		c-0.3-0.1-0.4-0.2-0.3-0.7c0.2-1.2,0.2-8.1,0.2-14.2V99.4z M368.6,126.4c0,6.9,0.3,9.4,1.3,12.1c0.8,2,4.3,4.2,7.9,4.2
		c5,0,11.2-3.4,11.2-14.3c0-8.1-4.2-15.7-12.4-15.7c-3.1,0-6.1,1.1-7.9,3V126.4z"/>
	<path d="M405.6,122.2c0-4.2-0.7-5.1-3-6.3L401,115c-0.5-0.2-0.7-0.2-0.7-0.6v-0.5c0-0.3,0.2-0.5,0.7-0.7l8.2-4.2
		c0.5-0.2,0.8-0.3,1.2-0.3c0.5,0,0.6,0.5,0.6,1l0.4,5.9h0.3c2.5-3.8,6.4-7.2,10-7.2c2.8,0,4.2,1.7,4.2,3.7c0,2.4-2,4.1-3.5,4.1
		c-0.9,0-1.7-0.3-2.4-0.7c-0.7-0.4-1.7-0.7-2.7-0.7c-1.3,0-3.5,0.8-4.9,3.5c-0.5,0.9-0.8,2.4-0.8,2.7v17.3c0,2.6,0.6,3.4,2.3,3.4
		h3.9c0.5,0,0.6,0.3,0.6,0.7v1.5c0,0.5-0.1,0.7-0.4,0.7c-0.5,0-4.3-0.2-8.8-0.2c-5.2,0-8.7,0.2-9.2,0.2c-0.3,0-0.5-0.2-0.5-0.8v-1.4
		c0-0.6,0.2-0.7,0.9-0.7h3.2c1.3,0,1.8-0.5,1.8-1.6c0.1-2.7,0.1-5.7,0.1-10V122.2z"/>
	<path d="M455.8,140.7c1.3,0,2.5-0.7,2.9-1.2c0.3-0.4,0.5-0.6,0.8-0.3l0.8,0.7c0.2,0.2,0.4,0.7-0.1,1.5c-0.7,1.2-2.2,4.1-6.5,4.1
		c-3,0-5.2-2.2-5.9-5.6h-0.2c-1.7,2.1-4.5,3.8-8.2,5.1c-1.6,0.5-3.1,0.5-4.9,0.5c-2,0-5-1.7-5-6.9c0-3.8,1.7-7.2,8.3-10.1
		c3.7-1.7,8.1-3.7,9.4-4.8v-5.3c-0.2-1.4-0.3-3.6-1.2-4.7c-0.9-1.1-2.6-1.8-5-1.8c-1.7,0-4.2,0.7-5.4,1.7c-1.2,1.1-0.4,2.3-0.4,3.8
		c0,2.9-1,4.7-4.4,4.7c-1.3,0-2-0.7-2-2.7c0-2.7,2.3-5.8,5.7-7.8c3.5-2.1,6.4-2.9,10.2-2.9c3.9,0,5.5,1.2,6.7,2.2
		c1.7,1.7,1.8,3.7,1.8,5.9v17.7C453.3,139.2,454.3,140.7,455.8,140.7z M447.2,126c-3,2.2-11.2,3.9-11.2,10.8c0,3.1,1.8,4.6,4.3,4.6
		c2.4,0,6.8-2.9,6.8-5.2V126z"/>
	<path d="M467.8,122.2c0-4.2-0.7-5.1-3-6.3l-1.6-0.8c-0.5-0.2-0.7-0.2-0.7-0.6v-0.5c0-0.3,0.2-0.5,0.7-0.7l8.2-4.2
		c0.5-0.2,0.8-0.3,1.2-0.3c0.5,0,0.6,0.5,0.6,1l0.4,5.9h0.3c2.5-3.8,6.4-7.2,10-7.2c2.8,0,4.2,1.7,4.2,3.7c0,2.4-2,4.1-3.5,4.1
		c-0.9,0-1.7-0.3-2.4-0.7c-0.7-0.4-1.7-0.7-2.7-0.7c-1.3,0-3.5,0.8-4.9,3.5c-0.5,0.9-0.8,2.4-0.8,2.7v17.3c0,2.6,0.6,3.4,2.3,3.4
		h3.9c0.5,0,0.6,0.3,0.6,0.7v1.5c0,0.5-0.1,0.7-0.4,0.7c-0.5,0-4.3-0.2-8.8-0.2c-5.2,0-8.7,0.2-9.2,0.2c-0.3,0-0.5-0.2-0.5-0.8v-1.4
		c0-0.6,0.2-0.7,0.9-0.7h3.2c1.3,0,1.8-0.5,1.8-1.6c0.1-2.7,0.1-5.7,0.1-10V122.2z"/>
	<path d="M496.4,120.1c0-2.8-0.5-4.3-4.7-5c-0.6-0.1-0.7-0.3-0.7-0.6v-0.7c0-0.2,0.2-0.4,0.6-0.6c2.7-1,5.8-2.3,9-4.1
		c0.7-0.3,1.1-0.5,1.6-0.5c0.4,0,0.5,0.4,0.4,1c-0.2,1.4-0.2,6.7-0.2,13.6v9.1c0,3.2,0,6.2,0.1,7.2c0.2,1.6,0.4,2.2,1.3,2.2h3.8
		c0.7,0,0.8,0.3,0.8,0.7v1.4c0,0.6-0.2,0.8-0.7,0.8c-0.7,0-4.5-0.2-8-0.2c-4.8,0-8.1,0.2-9,0.2c-0.4,0-0.7-0.2-0.7-0.7v-1.7
		c0-0.5,0.3-0.7,0.8-0.7h4.1c0.9,0,1.3-0.3,1.3-1.7c0.1-2.5,0.1-5.1,0.1-7.6V120.1z M492.5,94.5c0-2.2,1.8-4.7,5.2-4.7
		c3.1,0,4.5,2.5,4.5,4.4c0,2.2-1.5,4.9-5,4.9C495.3,99.2,492.5,97.3,492.5,94.5z"/>
	<path d="M518.7,122.2c-0.2,0.7-0.3,2.1-0.3,4c0,8.2,5.2,14.3,11.8,14.3c5.1,0,8.7-2.9,10.1-5.7c0.2-0.3,0.5-0.5,0.7-0.4l1.1,0.6
		c0.3,0.1,0.4,0.3,0,1.2c-1.5,3.3-5.8,9.1-13.2,9.1c-4.7,0-10-1.4-13.1-5.9c-2.9-4.2-3.7-7.3-3.7-13.2c0-3.2,0.8-8.8,5.2-13.2
		c3.6-3.7,7.7-4.4,11.9-4.4c9.6,0,12.2,9,12.2,12.2c0,1.2-1,1.3-2.3,1.3H518.7z M531.9,119.7c1.6,0,2.2-0.4,2.2-1.2
		c0-1.9-1-7.4-6.4-7.4c-3.7,0-7.2,2.4-8.7,8.6H531.9z"/>
	<path d="M548.9,142.9c-0.4-0.3-0.4-0.7-0.5-1.2l-1.4-7.9c-0.1-0.4,0.2-0.6,0.5-0.7l1.1-0.2c0.3-0.1,0.6,0.1,0.7,0.5l2.1,4.1
		c1.7,3.1,2.8,5.2,7.2,5.2c2.9,0,6.6-1.7,6.6-5.7c0-3.7-1.8-5.9-8.1-7.7c-4.9-1.4-9.8-4-9.8-10.6c0-5.7,5.4-10.2,11.7-10.2
		c4,0,6.2,1,7.7,1.7c1.3,0.6,1.4,1,1.5,1.5l1.3,5.8c0,0.3-0.2,0.6-0.6,0.7l-1,0.3c-0.3,0.1-0.5,0-0.7-0.4l-2.8-3.8
		c-1-1.6-2.6-3.2-5.8-3.2c-3.2,0-6.4,1.9-6.4,5.5c0,4.8,3.9,5.7,8,6.9c6.1,1.7,9.9,4.2,10,10.7c-0.1,6.7-5.6,11-12.7,11
		C553.2,145.3,549.9,143.7,548.9,142.9z"/>
</g>
</svg>
